<svg id="brainBug" xmlns="http://www.w3.org/2000/svg" viewBox="0 0 97.25 66.8">
  <title>brainBug</title>
  <path d="M97.29,54.15c-3-2-8.65-3.33-8.65-3.33l-3.69.3L84.4,50s4.6-1.33,4.6-3.2.3-3-1.57-5-3.69-4.05-3.69-4.05a24.51,24.51,0,0,0-4.84-4L75.63,30l-3.69-1.09-.61-2.78s-6-7.87-9.07-9.44l-3-1.58-.72-1.93s-6-4.12-7.87-5.69A35.18,35.18,0,0,0,44.83,4L38.9,2.54H31.64S20.39,5.2,17.73,5.32,9.5,14.4,9,18.51,5.63,31.58,5.63,31.58s-1.7,12.83.48,15.25l1,5.44s-.61,12,3.63,12.47l1.81.12S15.91,69,26.68,68.37s7.26-1,7.26-1,2.3-1.7,4.6-1.09,5.57,1.57,6.54,1.45a29.1,29.1,0,0,1,4.23.36l6.66.37L59,69l4.6.36s1.21.13-.3-1.63l4.11.12.73-.3,5.87.72s1.81-.42.18-1.14-6.66-2.55-6.66-2.55l-.72-.78,1.15-.3.72-.49s2.78-1.21,4.36-.36,5.87,3.45,5.87,3.45,4.11,1.81,2.66-1.52c-1.15-2.62-1.46-2.95-1.55-3,.3-.09,4.08-1.22,5.3-.17s4.48,4.29,4.48,4.29,3.26,1,2.3-2.48a18.38,18.38,0,0,0-1.82-4.78h1s5.75,2.42,8,4.72,2.9-.54,2.9-.54S100.31,56.14,97.29,54.15ZM10.73,55.88s-.59.83-1.22.12.55-1.19.55-1.19C10.77,55,10.73,55.88,10.73,55.88Zm-.73-4c.71.16.67,1.06.67,1.06s-.59.83-1.22.12S10,51.91,10,51.91Zm-.5-1.58c-1-.8-.23-1.36.34-.95a2.91,2.91,0,0,0,.86.54C11,49.94,10.48,51.12,9.5,50.33Zm2-.61c-2,.15-1.83-1.77-1.81-2.23s.79-.81,1.72,0S11.47,49.72,11.47,49.72Zm8-.9c-.66-2.54,2.85-2.3,2.66.25C22.08,49.07,20.09,51.36,19.42,48.82Zm7.32,1.76s-.9,1.27-1.87.18.84-1.82.84-1.82C26.8,49.19,26.74,50.58,26.74,50.58Zm3.51,3.12s-.76,1.07-1.57.16.71-1.53.71-1.53C30.3,52.54,30.25,53.7,30.25,53.7Zm2.5,3.69s-.59.83-1.22.12.55-1.18.55-1.18C32.79,56.48,32.75,57.39,32.75,57.39Z" transform="translate(-5 -2.54)"/>
</svg>
