<svg id="bug1" xmlns="http://www.w3.org/2000/svg" viewBox="0 0 83.97 76.47">
  <title>bug1</title>
  <path d="M87.72,39.72c-2.14-8.47-3.64-11.9-6.86-14.25s-9.1-9.86-9.1-9.86-4.07-1.71-6.54-.32-3.74-.21-3.74-.21L59,13.79s-3.91-1-4.82-2.68a2.59,2.59,0,0,0-2.73-1.34l-3-2s.11-1.55-3.16-1.12c0,0-3-.42-4.77-.86a2.36,2.36,0,0,0-3.16-.32s-.43.43-1.71-.38a2.32,2.32,0,0,0-2.57.27S31.8,4.69,30.3,3.67s-4.5-.48-5.62-.06-1,.15-1,.15c-.29.14-2.43-.64-3.5,1.93-.83,2-.85,2.26-.81,2.29-.23.06-2,.51-3.34.78a2.5,2.5,0,0,0-1.85,1.43s-3.07-.72-4.36,5.35c0,0-4.57,5.93-4.93,7.14a3.11,3.11,0,0,0,0,2S7.7,20,9.84,18.61c0,0-2.93,4.29-3.28,6.14,0,0,1.14-2.39,1.89-2.66a16,16,0,0,0-.7,2.79c0,.91,2.9-4.77,4.72-5.63a3.77,3.77,0,0,0,2.41-.58s.69,1.07,2.46-.91c0,0,.38.48,1.23.1,0,0,.86,3.86,1.72,4.23a.81.81,0,0,1-.59,1.13c-1,.32-2,.48-2.57-.22s-1.88,0-1.88,0-1.93,2.2-1.5,4a4.29,4.29,0,0,0,1.13,2.36s-.49-5,1-4.88c0,0,.33.49,1.45-.16l3.16.22S20.39,22.79,21,23l.59.16.32,1.07s-3.53,2.41-1.34,5.36c0,0,.16-3.64,1.93-3.64s1.23,2.19,1.23,2.19a2.55,2.55,0,0,0,.65,1.72c.64.53-.54,1.66-.54,1.66a1.2,1.2,0,0,0-1.23.26s-1.82-.1-2.09.86a2.74,2.74,0,0,0-2.14,1.34s-.27-.48-1.34-.21c0,0-1.93-1.56-3.11-1.34,0,0-2.62-2.63-3.53-3.48s-1.56-3.32-2-2,1.92,4.5,2.25,5.36-2.42-1.5-2.42-1.5L5.45,27.24s-1-.92.27,1.28,2.35,4.23,3.21,4.55c0,0,.56,3.49,2.25,3.49A8.36,8.36,0,0,1,12.25,38a1.82,1.82,0,0,1-2,.7c-1.5-.22-1,2.57.54,1.34,0,0,2.67-1.07,3.21-.43a4.54,4.54,0,0,0,1.77,1s-.91,2.73,1.82,1.39,2.89-.06,3.48.75-1.23,3.37-.27,3.27,1.39-2.15,1.39-2.15A1.67,1.67,0,0,1,23.5,45.5c-.05,1.29-.3,3.18.3,2s-.1-2.22.72-1.93.68,1.6.68,1.6.75.43.57-1.25c0,0,3.21.86,4.64-.64a3.72,3.72,0,0,0,2-.32l-.5.89s-2.28.11-2.53,1.93a10.48,10.48,0,0,0,0,3.11S27.73,52,27.7,53.11s-2.58,1.67-2.58,1.67-1.39-.67-1.92-.32-3.25-2.82-3.79-4-2.89-4-5.35-4.36a12,12,0,0,1-5.54-3.07c-.32-.43-2.25,2.61-2.11,3.61A5.2,5.2,0,0,0,7,48.43c.14.28,1.18,6.57,1.39,7.85,0,0-.93,2.82,2.79,6.5s5.85,6.14,7.64,6,0-.18,0-.18-3.82-3.79-4.28-6.25-.75-5.18-.75-5.18a16,16,0,0,0-2-1.57c-1.25-.82-2-2.07-2-4.68s-.53-2.82-.53-2.82,1,.11.85-1.11,1.33,4.47,4.18,4.82,2.47.43,4,1.47,3.93,3,4,3,.14,1.07.14,1.07,1.39.11,1.61.75.42,1.29,1.64.11a5.32,5.32,0,0,1,3-1.32s2.29-1.75,2.4-3.11c0,0,1.64-2,2.78-2.14s1-.89,1-.89a1,1,0,0,0,1.25.89c1.14-.14,1.32-.46,1.32-.46s.57,1,1.1.68c0,0,0,.85,1.07.92l1.08.08s1.82,2.42,2.64,2.67,1.13,3.12,1.13,3.12a2.58,2.58,0,0,1-1.1-1.55c-.1-.91-1.92-2-3.42-2.28S36.46,53.59,36,52.68s-1.26-.27-1.61.35-1.42,1.23-.88,3a12,12,0,0,1,.37,3.8s.51,7.1.59,8.06a9.18,9.18,0,0,0,3.08,6.48s1,4.34,4.37,5,.1-.06.1-.06a11.11,11.11,0,0,1-2.76-8.83c.78-5.25-1.44-4-2.19-6.73s-1.34-5.3-.91-5.73,1,.43,1,.43,1.18,2.49,5.44,1.74L44,61.51l.05.94,1.1.48s.06,2,1,.86.67-1.85,1.26-2-.22-1.42-.22-1.42-.67,0-.32-1.74a4.36,4.36,0,0,0-.93-4s.48.29.26-1.18a8,8,0,0,1-.13-2L48,53.4s.35,1.31,1.29,1.21-1.42.68,2,3.65l.06,0s1.74,1.55,1.77,2.57.36,1.7,1.5,1.64.66,7.5.52,8.2,1.14-1.16,1.14-1.16a25.87,25.87,0,0,0,.59-6.32l.79,0a3,3,0,0,0-.25-1.66,23.8,23.8,0,0,1,6.66-7.16c4-2.52,4.87-4,6.1-6.91s2.31-4.66,3.48-4.34,2.09.11,2.31,5-.27,6.75-.16,9.75a66.51,66.51,0,0,0,.69,6.75s-.69,6.64-2.41,7.71c0,0-1.6,2.52,1.61-.8,0,0,2.62-4.66,3.16-7.87s2.2-2.79,1.93-7.07A52.17,52.17,0,0,0,77.33,43a14.15,14.15,0,0,0,4.07-1.4c2.36-1.17,6.32,4.72,6.43,5.79S89.86,48.18,87.72,39.72ZM53.26,56.39l-1.21-2s.43-1.71-.22-2.14S51.41,49,51.41,49c.28-.22.35-.43.42-1.29s.93,1.71,1.29,3.93A22.09,22.09,0,0,1,53.26,56.39Zm10.21-8.57c-1.92,3.29-5.21,9.21-6,9.43,0,0-.43-5.22-2.93-8.07,0,0-2.5-3-.5-3.57s2-.79,2-.57,3.35-.79-3.43-3.29c0,0,.71-1.86-.71-2.21,0,0,1-.29,1.21-.93s.14,2.71,1.14,2.21-.5-3.57.43-4.35a8.1,8.1,0,0,0,1.5-1.72s.64,3.07,1.64,2.14-.43-2.14.15-4,1.21-.43,1.21-.43.86.43,1.5-1.43l.07-.22v-.07s.52-1.44,0,.07c0,.3.14,1.38,1.07,1,0,0-.43,1.58.43,1.86s.21,1.14,2.07.14c0,0,1.22,1,.72,2s-.15,1.57.78.93c0,0,2.64,5.36,5,5.36C70.83,42.11,65.4,44.54,63.47,47.82Z" transform="translate(-4.76 -3.09)"/>
</svg>
