<svg id="bug2" xmlns="http://www.w3.org/2000/svg" viewBox="0 0 107.21 73.92">
  <title>bug2</title>
  <path d="M110.29,74.82c-.94-8.13-12.13-21.91-12.13-21.91l.51-.38c.52-.39,2.07-4.69,2-5.51s2.1-4,2.1-4l-3.09,2A2.9,2.9,0,0,1,96,46.2a7.86,7.86,0,0,0-3.45-2.15c-2.11-.6-3.91-2.8-4.3-3.23a2.58,2.58,0,0,1-.52-1.07c-1-.61-.3-1.21-.3-1.21l-.34-.21.43-1L87,37v-.47l-.56.13-.22-.17-.3.13-.3-.18.09-.55C84.9,35.83,84,37.16,84,37.16L83.87,37l-.65.9-.25-.3-.48.22L82,37.34a2.15,2.15,0,0,0-1.21-1.94c.3-.95,5.17-1.68,5.17-1.68l.38,1.12,1-.6.65.38,0-.68,1.29-.52.43.52.17-.78.74-.13c.13-.64,1.89-.69,1.89-.69,1-.9,1.94.22,1.94.22l.13-.39,1.16.43.34.52.22-.39,2.66.73c1.51-1.46,2.46-.26,2.46-.26a2.51,2.51,0,0,1,2.58-.3c1.12-.77,1,.22,1,.22l-.34,1.81a7.45,7.45,0,0,1-.22,3.7l.77-1.38c.61-1.72,2.92-3.82,5.56-7.95s-.81-5.39-2.3-4a8.11,8.11,0,0,1-4.13,1.6,13.64,13.64,0,0,0-6.43-.34c-1.72.34-7.8-2.07-7.8-2.07,3.1-2.87,15.61-3.1,15.61-3.1l-.68-.16c-6.65-1.44-16.22,1.9-17,2.23s-10.32-4.59-10.32-4.59L79,22.07l-2.53-.92A4.34,4.34,0,0,0,72.55,20c-4-1.38-4-4.48-2.75-3.91s2.52-.68,4.47-4S89.88,5.2,89.88,5.2a35.42,35.42,0,0,0-21.59,9.41L66.61,15s.86,1-.17,1.38-.17,3.14-.17,3.14l2.28,1.64,7.62,2.11,1.42.73.64-.17c1.42,1.33-.47.86-.47.86,0,.47-3.7.86-3.7.86l-1-.3-2.2,1.07L69.32,26c-.81.82-4,2.16-6.71,3.4s-2.45.69-7.83,2.76-7.1,1.42-7.1,1.42l-3.32.26s-.3.69.78.94,1,1.77,1,1.77l-.86.82,1.76.94-.51,1.16s2.71.22,3.7-.51,4-.82,4-.82l1.25.69c-1,.69-1.85,4.3-1.85,4.3L51.85,46s-2.92,6.71-3.27,8.77S46.69,56,46.69,56s.17-1.16-.3-1.42-1.21-2.15-1.21-2.15-.82-3.14-3-8.86-4.6-5.77-4.6-5.77-3.23-.3-3.62.95-1.8-.22-1.8-.22l-.78,2.07-.73,1.16a11.51,11.51,0,0,1-1.89,1c-1,.39-5.13,5.33-9.73,10.15S10.41,64.4,7,70.9s-2.24,7-2.24,7c.17-1.24,7.53-13,7.53-13s1.38-1.42,4.86-5.9S26,50.42,28,49a69.8,69.8,0,0,0,5.46-5l.91.6a1.11,1.11,0,0,1,1.59-.21,52.08,52.08,0,0,0,4.13,5.42c1.38,1.5,2.63,7.79,2.63,7.79l3.83,5.29,1.37,1,1.34-1.16c1.9-.79,3.05-4.39,3.45-5.87-.4,2.32-.57,9.14-.57,9.14l-1.42,9c-.22,5.85.9,0,.9,0s2.5-13.64,3.62-17.65a59.9,59.9,0,0,1,3.1-8.17l.77,1.5s1.85,3.66,1.85,6a22.17,22.17,0,0,0,.43,4.3s.82-.08,1.12,3.49,2.07,2.28,4.22.47.13-7.53.13-7.53L67,53s-.26-3.1.26-2.63a1.16,1.16,0,0,1,.15.21,49.22,49.22,0,0,1,2,5.13s0-.82.13,1.85,3.14,3.7,3.14,3.7l.61-.3c1.59.35,2.1-2.11,2.1-2.11s.26-.6.87,2.2a5.66,5.66,0,0,0,2.79,3.83s.35,8.48.17,10.89.56,3,.56,3l.74-4.18.08-1.5a24.22,24.22,0,0,1,.09-3.83c.21-1.6.17-5.34.17-5.34a31.28,31.28,0,0,0,1.94-3.27c.51-1.16,1.29-2.58,1.29-2.58s.3-3.06,1.29-4.35,2.24-3.18,2.24-3.18a5,5,0,0,0,1.59-1.94l.47.3.73-.3,2,2.41s3.27,3.14,7,7.1,10.2,17,10.2,17l.13.69,1.55,3.31,0-2.06ZM64.17,57.19l-1-3.44-1.49-9,2.18.69.23,4s-1.26,2.18,0,3.9A3.77,3.77,0,0,1,64.17,57.19ZM81.62,52l-.69,4.48-3.1-12.39,5.74,2.06Z" transform="translate(-4.52 -5.2)"/>
</svg>
