<?xml version="1.0" encoding="utf-8"?>
<!-- Generator: Adobe Illustrator 22.0.1, SVG Export Plug-In . SVG Version: 6.00 Build 0)  -->
<svg version="1.1" id="Layer_1" xmlns="http://www.w3.org/2000/svg" xmlns:xlink="http://www.w3.org/1999/xlink" x="0px" y="0px"
	 viewBox="0 0 94 52" style="enable-background:new 0 0 94 52;" xml:space="preserve">
<style type="text/css">
	.st0{enable-background:new    ;}
	.st1{clip-path:url(#SVGID_2_);enable-background:new    ;}
	.st2{fill:#282828;}
	.st3{clip-path:url(#SVGID_4_);enable-background:new    ;}
	.st4{clip-path:url(#SVGID_6_);enable-background:new    ;}
	.st5{fill:#313131;}
	.st6{fill:#323232;}
	.st7{fill:#343434;}
	.st8{fill:#353535;}
	.st9{fill:#373737;}
	.st10{fill:#383838;}
	.st11{fill:#262626;}
	.st12{clip-path:url(#SVGID_8_);enable-background:new    ;}
	.st13{clip-path:url(#SVGID_10_);enable-background:new    ;}
	.st14{fill:#2F2F2F;}
	.st15{fill:#2E2E2E;}
	.st16{fill:#2C2C2C;}
	.st17{fill:#2B2B2B;}
	.st18{fill:#292929;}
	.st19{fill:#333333;}
	.st20{clip-path:url(#SVGID_12_);enable-background:new    ;}
	.st21{fill:#454545;}
	.st22{clip-path:url(#SVGID_14_);enable-background:new    ;}
	.st23{fill:url(#SVGID_15_);stroke:#383838;stroke-miterlimit:10;}
</style>
<g id="button_1_">
	<g>
		<g class="st0">
			<g class="st0">
				<defs>
					<path id="SVGID_1_" class="st0" d="M88,38l-3.3,4.8c-1.6,2.3-4.4,3.9-7.4,3.9l3.3-4.8C83.7,41.9,86.4,40.4,88,38z"/>
				</defs>
				<clipPath id="SVGID_2_">
					<use xlink:href="#SVGID_1_"  style="overflow:visible;"/>
				</clipPath>
				<g class="st1">
					<path class="st2" d="M88,38l-3.3,4.8c-1.6,2.3-4.4,3.9-7.4,3.9l3.3-4.8C83.7,41.9,86.4,40.4,88,38"/>
				</g>
			</g>
			<g class="st0">
				<defs>
					<path id="SVGID_3_" class="st0" d="M10,13.9l3.3-4.8c-1.1,1.5-1.7,3.4-1.6,5.3l-3.3,4.8C8.3,17.2,8.9,15.4,10,13.9z"/>
				</defs>
				<clipPath id="SVGID_4_">
					<use xlink:href="#SVGID_3_"  style="overflow:visible;"/>
				</clipPath>
				<g class="st3">
					<path class="st2" d="M11.7,14.4l-3.3,4.8c0-2,0.6-3.8,1.6-5.3l3.3-4.8C12.2,10.6,11.6,12.4,11.7,14.4"/>
				</g>
			</g>
			<g class="st0">
				<defs>
					<path id="SVGID_5_" class="st0" d="M80.7,6.7l-0.8-1.9c5.1,0,9.3,4.1,9.4,9.1l-2.2-1.1C87,9.5,84.1,6.7,80.7,6.7z"/>
				</defs>
				<clipPath id="SVGID_6_">
					<use xlink:href="#SVGID_5_"  style="overflow:visible;"/>
				</clipPath>
				<g class="st4">
					<path class="st5" d="M80.7,6.7l-0.8-1.9c0.1,0,0.2,0,0.3,0l0.7,1.9C80.8,6.7,80.8,6.7,80.7,6.7"/>
					<path class="st6" d="M80.9,6.7l-0.7-1.9c0.4,0,0.8,0,1.2,0.1l0.3,1.8C81.4,6.7,81.2,6.7,80.9,6.7"/>
					<path class="st7" d="M81.7,6.8l-0.3-1.8c0.4,0.1,0.9,0.2,1.3,0.3L82.6,7C82.3,6.9,82,6.8,81.7,6.8"/>
					<path class="st8" d="M82.6,7l0.1-1.7c0.5,0.2,1,0.4,1.4,0.6l-0.6,1.5C83.3,7.2,82.9,7.1,82.6,7"/>
					<path class="st9" d="M83.6,7.4l0.6-1.5c0.7,0.3,1.3,0.7,1.8,1.2l-1.1,1.2C84.4,7.9,84,7.6,83.6,7.4"/>
					<path class="st10" d="M84.8,8.2L86,7.1c1.3,1.1,2.3,2.5,2.8,4.1L86.7,11C86.4,9.9,85.7,8.9,84.8,8.2"/>
					<path class="st9" d="M86.7,11l2.1,0.2c0.2,0.7,0.4,1.4,0.5,2.1l-2.2-0.9C87,11.9,86.9,11.5,86.7,11"/>
					<path class="st8" d="M87.1,12.4l2.2,0.9c0,0.2,0,0.5,0,0.7l-2.2-1.1C87.1,12.7,87.1,12.6,87.1,12.4"/>
				</g>
			</g>
			<g>
				<polygon class="st11" points="12,33.1 8.7,37.9 8.3,19.2 11.7,14.4 				"/>
			</g>
			<g>
				<polygon class="st10" points="87.1,12.9 89.3,14 89.7,32.7 87.4,31.6 				"/>
			</g>
			<g>
				<polygon class="st11" points="80.6,41.9 77.3,46.7 18.1,47.1 21.5,42.3 				"/>
			</g>
			<g class="st0">
				<defs>
					<path id="SVGID_7_" class="st0" d="M21.5,42.3l-3.3,4.8c-5.1,0-9.3-4.1-9.4-9.1l3.3-4.8C12.1,38.2,16.4,42.3,21.5,42.3z"/>
				</defs>
				<clipPath id="SVGID_8_">
					<use xlink:href="#SVGID_7_"  style="overflow:visible;"/>
				</clipPath>
				<g class="st12">
					<path class="st2" d="M21.5,42.3l-3.3,4.8c-5.1,0-9.3-4.1-9.4-9.1l3.3-4.8C12.1,38.2,16.4,42.3,21.5,42.3"/>
				</g>
			</g>
			<g class="st0">
				<defs>
					<path id="SVGID_9_" class="st0" d="M87.4,31.6l2.2,1.1c0.1,5.1-4,9.2-9.1,9.2l0.7-4.1C84.7,37.9,87.5,35,87.4,31.6z"/>
				</defs>
				<clipPath id="SVGID_10_">
					<use xlink:href="#SVGID_9_"  style="overflow:visible;"/>
				</clipPath>
				<g class="st13">
					<path class="st8" d="M87.4,31.6l2.2,1.1c0,0.3,0,0.6,0,0.9l-2.2-1.4C87.4,32,87.5,31.8,87.4,31.6"/>
					<path class="st7" d="M87.4,32.2l2.2,1.4c0,0.4-0.1,0.9-0.2,1.3l-2.1-1.8C87.4,32.8,87.4,32.5,87.4,32.2"/>
					<path class="st6" d="M87.3,33.1l2.1,1.8c-0.1,0.4-0.2,0.8-0.4,1.2l-2-2.2C87.2,33.6,87.2,33.4,87.3,33.1"/>
					<path class="st5" d="M87.1,33.9l2,2.2c-0.1,0.4-0.3,0.8-0.5,1.1l-1.9-2.5C86.8,34.4,87,34.1,87.1,33.9"/>
					<path class="st14" d="M86.7,34.6l1.9,2.5c-0.2,0.4-0.4,0.7-0.7,1.1l-1.7-2.9C86.4,35.1,86.6,34.9,86.7,34.6"/>
					<path class="st15" d="M86.3,35.3l1.7,2.9c-0.3,0.4-0.5,0.7-0.9,1L85.7,36C85.9,35.8,86.1,35.6,86.3,35.3"/>
					<path class="st16" d="M85.7,36l1.4,3.2c-0.3,0.3-0.7,0.7-1.1,1l-1-3.5C85.2,36.5,85.4,36.3,85.7,36"/>
					<path class="st17" d="M84.9,36.7l1,3.5c-0.5,0.3-0.9,0.6-1.5,0.9l-0.6-3.8C84.3,37.1,84.6,36.9,84.9,36.7"/>
					<path class="st18" d="M83.9,37.3l0.6,3.8c-0.7,0.3-1.4,0.6-2.2,0.7l0.1-4C83,37.7,83.5,37.5,83.9,37.3"/>
					<path class="st2" d="M82.5,37.8l-0.1,4c-0.6,0.1-1.1,0.2-1.7,0.2l0.7-4.1C81.7,37.9,82.1,37.8,82.5,37.8"/>
				</g>
			</g>
			<g>
				<polygon class="st19" points="21.6,7 20.7,5.2 79.9,4.8 80.7,6.7 				"/>
			</g>
			<g class="st0">
				<defs>
					<path id="SVGID_11_" class="st0" d="M15.4,13.3l-3.8,1.1c-0.1-5.1,4-9.2,9.1-9.2L21.6,7C18.1,7.1,15.4,9.9,15.4,13.3z"/>
				</defs>
				<clipPath id="SVGID_12_">
					<use xlink:href="#SVGID_11_"  style="overflow:visible;"/>
				</clipPath>
				<g class="st20">
					<path class="st2" d="M15.4,13.3l-3.8,1.1c0-1.9,0.5-3.7,1.5-5.1l3.3,0.5C15.8,10.8,15.4,12,15.4,13.3"/>
					<path class="st18" d="M16.4,9.8l-3.3-0.5c0.4-0.6,0.9-1.2,1.5-1.8l2.8,1.1C17.1,9,16.7,9.4,16.4,9.8"/>
					<path class="st17" d="M17.5,8.6l-2.8-1.1c0.4-0.4,0.9-0.7,1.4-1l2.3,1.4C18.1,8.1,17.7,8.4,17.5,8.6"/>
					<path class="st16" d="M18.4,7.9L16,6.5c0.4-0.2,0.8-0.5,1.3-0.6l1.9,1.7C19,7.6,18.7,7.8,18.4,7.9"/>
					<path class="st15" d="M19.3,7.5l-1.9-1.7c0.4-0.2,0.8-0.3,1.2-0.4l1.5,1.8C19.8,7.3,19.5,7.4,19.3,7.5"/>
					<path class="st14" d="M20.1,7.2l-1.5-1.8c0.4-0.1,0.8-0.2,1.2-0.2l1.1,1.9C20.6,7.1,20.4,7.2,20.1,7.2"/>
					<path class="st5" d="M20.9,7.1l-1.1-1.9c0.3,0,0.6-0.1,1-0.1L21.6,7C21.3,7,21.1,7.1,20.9,7.1"/>
				</g>
			</g>
			<g>
				<polygon class="st2" points="15.8,32 12,33.1 11.7,14.4 15.4,13.3 				"/>
			</g>
			<g>
				<polygon class="st18" points="81.3,37.9 80.6,41.9 21.5,42.3 22.2,38.2 				"/>
			</g>
			<g>
				<path class="st21" d="M80.7,6.7c3.4,0,6.3,2.8,6.4,6.2l0.4,18.7c0.1,3.4-2.7,6.2-6.1,6.3l-59.1,0.3c-3.4,0-6.3-2.8-6.4-6.2
					l-0.4-18.7c-0.1-3.4,2.7-6.2,6.1-6.3L80.7,6.7z"/>
			</g>
			<g class="st0">
				<defs>
					<path id="SVGID_13_" class="st0" d="M22.2,38.2l-0.7,4.1c-5.1,0-9.3-4.1-9.4-9.1l3.8-1.1C15.9,35.4,18.8,38.2,22.2,38.2z"/>
				</defs>
				<clipPath id="SVGID_14_">
					<use xlink:href="#SVGID_13_"  style="overflow:visible;"/>
				</clipPath>
				<g class="st22">
					<path class="st2" d="M22.2,38.2l-0.7,4.1c-5.1,0-9.3-4.1-9.4-9.1l3.8-1.1C15.9,35.4,18.8,38.2,22.2,38.2"/>
				</g>
			</g>
		</g>
	</g>
</g>
<linearGradient id="SVGID_15_" gradientUnits="userSpaceOnUse" x1="39.2911" y1="45.377" x2="67.9161" y2="-7.998">
	<stop  offset="2.072072e-02" style="stop-color:#000000;stop-opacity:0.6"/>
	<stop  offset="6.143039e-02" style="stop-color:#080808;stop-opacity:0.6"/>
	<stop  offset="0.1254" style="stop-color:#1F1F1F;stop-opacity:0.6"/>
	<stop  offset="0.2045" style="stop-color:#434343;stop-opacity:0.6"/>
	<stop  offset="0.2958" style="stop-color:#767676;stop-opacity:0.6"/>
	<stop  offset="0.3966" style="stop-color:#B7B7B7;stop-opacity:0.6"/>
	<stop  offset="0.4973" style="stop-color:#FFFFFF;stop-opacity:0.6"/>
	<stop  offset="0.501" style="stop-color:#F6F6F6;stop-opacity:0.5993"/>
	<stop  offset="0.5213" style="stop-color:#C8C8C8;stop-opacity:0.5952"/>
	<stop  offset="0.5441" style="stop-color:#9D9D9D;stop-opacity:0.5907"/>
	<stop  offset="0.5686" style="stop-color:#777777;stop-opacity:0.5858"/>
	<stop  offset="0.5953" style="stop-color:#575757;stop-opacity:0.5805"/>
	<stop  offset="0.6249" style="stop-color:#3B3B3B;stop-opacity:0.5746"/>
	<stop  offset="0.6582" style="stop-color:#252525;stop-opacity:0.568"/>
	<stop  offset="0.6971" style="stop-color:#141414;stop-opacity:0.5603"/>
	<stop  offset="0.7452" style="stop-color:#090909;stop-opacity:0.5507"/>
	<stop  offset="0.8127" style="stop-color:#020202;stop-opacity:0.5373"/>
	<stop  offset="1" style="stop-color:#000000;stop-opacity:0.5"/>
</linearGradient>
<path class="st23" d="M77.9,36.1H24.7c-3.8,0-7-3.1-7-7V17c0-3.8,3.1-7,7-7h53.2c3.8,0,7,3.1,7,7v12.2C84.8,33,81.7,36.1,77.9,36.1z
	"/>
</svg>
